<svg width="18" height="14" viewBox="0 0 18 14" fill="none" xmlns="http://www.w3.org/2000/svg">
<path d="M17.4025 0H0.597506C0.439054 0.000178746 0.287149 0.0608579 0.175128 0.16872C0.0631073 0.276582 0.00012373 0.422815 0 0.575325V1.73273C0 1.78605 0.0600779 1.84725 0.109169 1.872L8.94226 6.72817C8.96488 6.74062 8.99054 6.74706 9.0166 6.74685C9.04323 6.74692 9.0694 6.74008 9.09234 6.72705L17.6585 1.87673C17.7066 1.85085 17.8343 1.78245 17.8822 1.75095C17.9402 1.71293 18 1.6785 18 1.61033V0.5751C17.9998 0.422629 17.9368 0.276454 17.8248 0.168641C17.7128 0.0608271 17.5609 0.000178642 17.4025 0V0Z" fill="#2B7AF1"/>
<path d="M17.9254 3.47777C17.9024 3.46515 17.8763 3.45859 17.8498 3.45874C17.8234 3.4589 17.7974 3.46578 17.7746 3.47867L12.927 6.2239C12.9077 6.23473 12.8911 6.24961 12.8786 6.26744C12.8661 6.28526 12.8579 6.30557 12.8546 6.32686C12.8514 6.34815 12.8531 6.36987 12.8598 6.39041C12.8664 6.41095 12.8778 6.42979 12.8931 6.44552L17.7414 11.4758C17.7553 11.4904 17.7722 11.502 17.7909 11.5099C17.8097 11.5178 17.83 11.5218 17.8506 11.5217C17.8901 11.5217 17.9281 11.5065 17.9561 11.4796C17.9841 11.4526 17.9999 11.4161 17.9999 11.378V3.60265C18 3.57735 17.9932 3.55248 17.9801 3.53056C17.967 3.50863 17.9481 3.49042 17.9254 3.47777Z" fill="#2B7AF1"/>
<path d="M11.53 7.14568C11.507 7.12156 11.4761 7.10576 11.4425 7.10093C11.4088 7.0961 11.3745 7.10252 11.3451 7.11913L9.40206 8.21961C9.28822 8.28292 9.15923 8.31664 9.02775 8.31747C8.89627 8.3183 8.76683 8.2862 8.65214 8.22433L6.94214 7.28406C6.91453 7.26892 6.88264 7.26264 6.85108 7.26612C6.81951 7.2696 6.78992 7.28266 6.76658 7.30341L0.273026 13.1008C0.256003 13.1161 0.242932 13.135 0.234856 13.156C0.226781 13.1771 0.223923 13.1997 0.226512 13.2219C0.2291 13.2442 0.237063 13.2656 0.249765 13.2844C0.262468 13.3032 0.279558 13.3189 0.299675 13.3303C0.400662 13.3874 0.498143 13.4146 0.59726 13.4146H17.2304C17.2595 13.4147 17.288 13.4065 17.3123 13.3911C17.3366 13.3757 17.3557 13.3538 17.3672 13.328C17.3788 13.3024 17.3824 13.2741 17.3775 13.2465C17.3726 13.219 17.3594 13.1934 17.3396 13.173L11.53 7.14568Z" fill="#2B7AF1"/>
<path d="M5.33782 6.61787C5.35502 6.60257 5.36824 6.58358 5.37641 6.56245C5.38458 6.54132 5.38747 6.51864 5.38486 6.49624C5.38224 6.47383 5.37418 6.45234 5.36134 6.43348C5.3485 6.41463 5.33124 6.39894 5.31094 6.38769L0.222782 3.59049C0.200074 3.57809 0.17438 3.57163 0.148268 3.57178C0.122156 3.57193 0.0965421 3.57867 0.0739877 3.59134C0.0514334 3.604 0.0327291 3.62214 0.0197454 3.64395C0.00676177 3.66576 -4.61672e-05 3.69046 2.38365e-06 3.71559V11.0551C-0.000162368 11.0831 0.0082166 11.1106 0.0241021 11.1341C0.0399875 11.1576 0.0626822 11.1761 0.0893771 11.1873C0.116072 11.1985 0.145595 11.2019 0.174292 11.1971C0.20299 11.1924 0.229601 11.1796 0.250833 11.1604L5.33782 6.61787V6.61787Z" fill="#2B7AF1"/>
</svg>
